<svg width="36" height="28" viewBox="0 0 36 28" fill="none" xmlns="http://www.w3.org/2000/svg">
<path fill-rule="evenodd" clip-rule="evenodd" d="M35.1213 27.1268C34.5587 27.6859 33.7957 28 33 28H3C2.20435 28 1.44129 27.6859 0.87868 27.1268C0.316071 26.5677 0 25.8093 0 25.0186V9H36V25.0186C36 25.8093 35.6839 26.5677 35.1213 27.1268ZM0 7.23496V2.98152C0 2.19081 0.316071 1.43248 0.87868 0.873367C1.44129 0.31425 2.20435 0.000141502 3 0.000141502H12.5C13.1816 -0.00645547 13.8451 0.217793 14.3813 0.635963C14.9175 1.05413 15.2944 1.6413 15.45 2.30077L15.55 2.71817C15.6528 3.15534 15.9014 3.54506 16.2555 3.82386C16.6096 4.10267 17.0482 4.25413 17.5 4.25358H33C33.7957 4.25358 34.5587 4.56769 35.1213 5.1268C35.6839 5.68592 36 6.44425 36 7.23496H0Z" fill="#105F9C"/>
</svg>
