<svg width="40" height="40" viewBox="0 0 40 40" fill="none" xmlns="http://www.w3.org/2000/svg">
<path d="M27.0312 23.5938C22.5079 23.5938 18.8281 27.2736 18.8281 31.7969C18.8281 36.3202 22.5079 40 27.0312 40C31.5546 40 35.2344 36.3202 35.2344 31.7969C35.2344 27.2736 31.5546 23.5938 27.0312 23.5938ZM30.5469 32.9688H25.8594V28.2812H28.2031V30.625H30.5469V32.9688Z" fill="#105F9C"/>
<path d="M20.0812 7.0321H4.95239L19.2679 1.48828C19.0344 2.1203 18.9063 2.80389 18.9063 3.51648C18.9063 4.83453 19.3439 6.05249 20.0812 7.0321Z" fill="#105F9C"/>
<path d="M24.7656 0C22.8275 0 21.25 1.57745 21.25 3.51563C21.25 5.4538 22.8275 7.03125 24.7656 7.03125V9.375H4.76562V35.3125H17.0868C16.6968 34.2126 16.4844 33.0289 16.4844 31.7969C16.4844 28.3969 18.1015 25.368 20.6064 23.4375H9.31244V21.0938H23.3749V21.9031C24.5148 21.4813 25.7462 21.25 27.0313 21.25C27.4539 21.25 27.8711 21.275 28.2813 21.3235V3.51563C28.2813 1.57745 26.7038 0 24.7656 0ZM23.3749 18.75H9.31244V16.4062H23.3749V18.75ZM23.3749 14.0625H9.31244V11.7188H23.3749V14.0625Z" fill="#105F9C"/>
</svg>
