<svg width="36" height="36" viewBox="0 0 36 36" fill="none" xmlns="http://www.w3.org/2000/svg">
<path d="M18 21.8571C20.1302 21.8571 21.8571 20.1302 21.8571 18C21.8571 15.8698 20.1302 14.1429 18 14.1429C15.8698 14.1429 14.1429 15.8698 14.1429 18C14.1429 20.1302 15.8698 21.8571 18 21.8571Z" fill="#105F9C"/>
<path d="M34.9968 14.8115L30.1112 13.7315C29.9582 13.2921 29.7779 12.8627 29.5712 12.4458L32.2583 8.22878C32.4217 7.98899 32.4993 7.70094 32.4783 7.41149C32.4573 7.12203 32.3389 6.8482 32.1426 6.63453L29.3655 3.85744C29.1571 3.65002 28.8839 3.52029 28.5915 3.48987C28.299 3.45946 28.005 3.5302 27.7584 3.69031L23.5413 6.42882C23.1245 6.2221 22.6951 6.04175 22.2556 5.88883L21.1756 1.00322C21.1103 0.713193 20.9465 0.454763 20.7121 0.27192C20.4777 0.089077 20.1872 -0.00687958 19.89 0.000384075H16.0329C15.7357 -0.00687958 15.4452 0.089077 15.2107 0.27192C14.9763 0.454763 14.8125 0.713193 14.7472 1.00322L13.6672 5.88883C13.2278 6.04175 12.7984 6.2221 12.3815 6.42882L8.24164 3.74173C8.00067 3.57499 7.70998 3.49556 7.41771 3.5166C7.12543 3.53765 6.84912 3.6579 6.63453 3.85744L3.85744 6.63453C3.65002 6.84291 3.52029 7.1161 3.48987 7.40855C3.45946 7.70099 3.5302 7.99503 3.6903 8.24164L6.42882 12.4587C6.2221 12.8755 6.04175 13.3049 5.88883 13.7444L1.00322 14.8244C0.713193 14.8897 0.454763 15.0535 0.27192 15.2879C0.089077 15.5223 -0.00687958 15.8128 0.000384075 16.11V19.9671C-0.00687958 20.2643 0.089077 20.5548 0.27192 20.7893C0.454763 21.0237 0.713193 21.1875 1.00322 21.2528L5.88883 22.3328C6.04175 22.7722 6.2221 23.2016 6.42882 23.6185L3.74173 27.7584C3.57499 27.9993 3.49556 28.29 3.5166 28.5823C3.53765 28.8746 3.6579 29.1509 3.85744 29.3655L6.63453 32.1426C6.75466 32.2617 6.89714 32.356 7.05378 32.42C7.21043 32.484 7.37816 32.5164 7.54736 32.5154C7.79372 32.5148 8.0347 32.4434 8.24164 32.3097L12.4587 29.5712C12.8755 29.7779 13.3049 29.9582 13.7444 30.1112L14.8244 34.9968C14.8897 35.2868 15.0535 35.5452 15.2879 35.7281C15.5223 35.9109 15.8128 36.0069 16.11 35.9996H19.9671C20.2643 36.0069 20.5548 35.9109 20.7893 35.7281C21.0237 35.5452 21.1875 35.2868 21.2528 34.9968L22.3328 30.1112C22.7722 29.9582 23.2016 29.7779 23.6185 29.5712L27.8355 32.2583C28.0424 32.3919 28.2834 32.4633 28.5298 32.464C28.699 32.465 28.8667 32.4325 29.0234 32.3685C29.18 32.3046 29.3225 32.2103 29.4426 32.0911L32.1426 29.3655C32.35 29.1571 32.4797 28.8839 32.5101 28.5915C32.5405 28.299 32.4698 28.005 32.3097 27.7584L29.5712 23.5413C29.7779 23.1245 29.9582 22.6951 30.1112 22.2556L34.9968 21.1756C35.2868 21.1103 35.5452 20.9465 35.7281 20.7121C35.9109 20.4777 36.0069 20.1872 35.9996 19.89V16.0329C35.9923 15.7467 35.8897 15.4712 35.708 15.2499C35.5264 15.0287 35.2761 14.8744 34.9968 14.8115ZM24.4284 18C24.4284 19.2714 24.0514 20.5143 23.345 21.5714C22.6387 22.6286 21.6347 23.4525 20.4601 23.9391C19.2854 24.4257 17.9929 24.553 16.7459 24.3049C15.4989 24.0569 14.3534 23.4446 13.4544 22.5456C12.5554 21.6466 11.9431 20.5011 11.6951 19.2541C11.447 18.0071 11.5743 16.7146 12.0609 15.5399C12.5475 14.3653 13.3714 13.3613 14.4286 12.655C15.4857 11.9486 16.7286 11.5716 18 11.5716C19.7049 11.5716 21.34 12.2488 22.5456 13.4544C23.7512 14.66 24.4284 16.2951 24.4284 18Z" fill="#105F9C"/>
</svg>
