<svg width="36" height="31" viewBox="0 0 36 31" fill="none" xmlns="http://www.w3.org/2000/svg">
<path d="M35.3133 23.8148L22.1673 2.2963C21.296 0.851852 19.7427 0 18 0C16.2573 0 14.704 0.851852 13.8327 2.2963L0.686734 23.8148C-0.222496 25.2963 -0.222497 27.0741 0.648849 28.5926C1.5202 30.1111 3.11135 31 4.85404 31H31.146C32.9265 31 34.4798 30.1111 35.3512 28.5926C36.2225 27.0741 36.2225 25.2963 35.3133 23.8148ZM18 25.963C16.8635 25.963 15.9542 25.0741 15.9542 23.963C15.9542 22.8519 16.8635 21.963 18 21.963C19.1365 21.963 20.0458 22.8519 20.0458 23.963C20.0458 25.0741 19.1365 25.963 18 25.963ZM20.1973 10.7407L19.4775 19C19.4017 19.7778 18.6819 20.3704 17.8863 20.2963C17.1665 20.2222 16.5983 19.6667 16.5604 19L15.8406 10.7407C15.7269 9.55556 16.6362 8.51852 17.8485 8.40741C19.0608 8.2963 20.1215 9.18518 20.2352 10.3704C20.1973 10.4815 20.1973 10.6296 20.1973 10.7407Z" fill="#105F9C"/>
</svg>
