<svg width="36" height="36" viewBox="0 0 36 36" fill="none" xmlns="http://www.w3.org/2000/svg">
<path d="M23.6901 15.6939V3.40476C23.6901 1.53401 22.1653 0 20.3058 0H3.3843C1.52479 0 0 1.53401 0 3.40476V15.7313C0 17.3776 1.15289 18.7619 2.71488 19.0612V22.0918C2.71488 22.4286 2.86364 22.8027 3.12397 23.0272C3.34711 23.2517 3.68182 23.3639 3.97934 23.3639C4.31405 23.3639 4.64876 23.2143 4.8719 22.9898L8.70248 19.1361H20.3058C22.1653 19.1361 23.6901 17.602 23.6901 15.6939ZM12.7934 14.3571C12.7934 14.6565 12.5702 14.881 12.2727 14.881H10.8967C10.5992 14.881 10.376 14.6565 10.376 14.3571V13.4592C10.376 13.1599 10.5992 12.9354 10.8967 12.9354H12.2727C12.5702 12.9354 12.7934 13.1599 12.7934 13.4592V14.3571ZM14.9132 9.08163C14.5413 9.60544 14.095 9.97959 13.5372 10.2789C13.2397 10.466 13.0165 10.6905 12.905 10.9524C12.8306 11.102 12.7934 11.3265 12.7562 11.551C12.7562 11.7381 12.5702 11.8878 12.3843 11.8878H10.7107C10.4876 11.8878 10.3017 11.7007 10.3388 11.4762C10.376 10.9898 10.4876 10.6531 10.6736 10.3537C10.8967 10.017 11.343 9.64286 11.9752 9.19388C12.3099 9.0068 12.5331 8.7449 12.719 8.44558C12.905 8.14626 12.9793 7.80952 12.9793 7.39796C12.9793 6.98639 12.8678 6.68708 12.6446 6.42517C12.4215 6.20068 12.124 6.05102 11.7149 6.05102C11.3802 6.05102 11.1198 6.16327 10.8967 6.35034C10.7479 6.46259 10.6736 6.64966 10.5992 6.83674C10.5248 7.06122 10.3017 7.2483 10.0413 7.21089L8.47934 7.17347C8.29339 7.17347 8.14463 6.98639 8.14463 6.79932C8.21901 5.97619 8.51653 5.34014 9.07438 4.89116C9.70661 4.40476 10.5992 4.14286 11.6405 4.14286C12.7934 4.14286 13.686 4.44218 14.3182 5.0034C14.9876 5.56463 15.2851 6.35034 15.2851 7.36054C15.4711 7.9966 15.2851 8.55782 14.9132 9.08163Z" fill="#105F9C"/>
<path d="M32.6157 13.6361H26.1446V15.6939C26.1446 18.949 23.5413 21.568 20.3058 21.568H12.3099V28.3673C12.3099 30.2381 13.8347 31.7721 15.6942 31.7721H27.2975L31.1281 35.6259C31.3512 35.8503 31.6859 36 32.0207 36C32.3554 36 32.6529 35.8878 32.876 35.6633C33.1364 35.4388 33.2851 35.0646 33.2851 34.7279V31.6973C34.8099 31.3605 36 30.0136 36 28.3673V17.0408C36 15.1701 34.4752 13.6361 32.6157 13.6361Z" fill="#105F9C"/>
</svg>
