<svg width="30" height="36" viewBox="0 0 30 36" fill="none" xmlns="http://www.w3.org/2000/svg">
<path fill-rule="evenodd" clip-rule="evenodd" d="M1.32911 0H28.6709C29.3924 0 30 0.605678 30 1.32492V33.9558C30 34.5994 29.6582 35.2051 29.0886 35.5079C28.519 35.8107 27.8354 35.7729 27.3038 35.4322L24.1519 33.3123L20.5443 35.6972C19.9747 36.0757 19.2152 36.0757 18.6076 35.6972L15 33.3123L11.3924 35.6972C11.1266 35.8864 10.7848 36 10.443 36C10.1013 36 9.75949 35.8864 9.4557 35.6972L5.8481 33.3123L2.6962 35.4322C2.16456 35.7729 1.48101 35.8107 0.911392 35.5079C0.341772 35.2051 0 34.5994 0 33.9558V1.32492C0 0.605678 0.607595 0 1.32911 0ZM14 23H23V25H14V23ZM23 16H7V18H23V16ZM7 12H23V14H7V12ZM23 8H7V10H23V8Z" fill="#105F9C"/>
</svg>
