<svg width="34" height="36" viewBox="0 0 34 36" fill="none" xmlns="http://www.w3.org/2000/svg">
<path d="M19.7439 11.664H17.7482V13.824H19.7439V11.664Z" fill="#105F9C"/>
<path d="M10.8342 12.816C10.8342 13.392 11.3332 13.896 11.9034 13.896H12.83V11.736H11.9034C11.3332 11.664 10.8342 12.168 10.8342 12.816Z" fill="#105F9C"/>
<path d="M16.3226 11.664H14.3268V13.824H16.3226V11.664Z" fill="#105F9C"/>
<path d="M22.0961 11.664H21.1695V13.824H22.0961C22.6663 13.824 23.1653 13.32 23.1653 12.744C23.2366 12.168 22.7376 11.664 22.0961 11.664Z" fill="#105F9C"/>
<path fill-rule="evenodd" clip-rule="evenodd" d="M0 17.208C0 7.704 7.62672 0 17.0354 0C26.4441 0 34.0708 7.704 33.9995 17.136C33.9995 24.912 28.8675 31.464 21.8823 33.624V36H12.1172V33.696C5.132 31.536 0 24.984 0 17.208ZM11.9034 15.336H22.0961C23.5217 15.336 24.5908 14.184 24.5908 12.816C24.5908 11.448 23.4504 10.296 22.0961 10.296H11.9034C10.5491 10.296 9.40867 11.448 9.40867 12.816C9.40867 14.184 10.5491 15.336 11.9034 15.336ZM17.7482 11.664H19.7439V13.824H17.7482V11.664ZM10.8342 12.816C10.8342 13.392 11.3332 13.896 11.9034 13.896H12.83V11.736H11.9034C11.3332 11.664 10.8342 12.168 10.8342 12.816ZM14.3268 11.664H16.3226V13.824H14.3268V11.664ZM22.0961 11.664H21.1695V13.824H22.0961C22.6663 13.824 23.1653 13.32 23.1653 12.744C23.2366 12.168 22.7376 11.664 22.0961 11.664ZM14.3268 25.416C13.1864 25.416 12.2598 24.48 12.2598 23.328C12.2598 22.176 13.1864 21.24 14.3268 21.24C15.4673 21.24 16.3939 22.176 16.3939 23.328C16.3939 24.48 15.4673 25.416 14.3268 25.416ZM17.6769 23.328C17.6769 24.48 18.6035 25.416 19.7439 25.416C20.8844 25.416 21.811 24.48 21.811 23.328C21.811 22.176 20.8844 21.24 19.7439 21.24C18.6035 21.24 17.6769 22.176 17.6769 23.328Z" fill="#105F9C"/>
</svg>
