<svg width="20" height="20" viewBox="0 0 20 20" fill="none" xmlns="http://www.w3.org/2000/svg">
<path d="M11.6667 1.66663H5.00001C4.55798 1.66663 4.13406 1.84222 3.8215 2.15478C3.50894 2.46734 3.33334 2.89127 3.33334 3.33329V16.6666C3.33334 17.1087 3.50894 17.5326 3.8215 17.8451C4.13406 18.1577 4.55798 18.3333 5.00001 18.3333H15C15.442 18.3333 15.866 18.1577 16.1785 17.8451C16.4911 17.5326 16.6667 17.1087 16.6667 16.6666V6.66663L11.6667 1.66663Z" stroke="#F8A040" stroke-width="1.5" stroke-linecap="round" stroke-linejoin="round"/>
<path d="M11.6667 1.66663V6.66663H16.6667" stroke="#F8A040" stroke-width="1.5" stroke-linecap="round" stroke-linejoin="round"/>
<path d="M13.3333 10.8334H6.66666" stroke="#F8A040" stroke-width="1.5" stroke-linecap="round" stroke-linejoin="round"/>
<path d="M13.3333 14.1666H6.66666" stroke="#F8A040" stroke-width="1.5" stroke-linecap="round" stroke-linejoin="round"/>
<path d="M8.33332 7.5H7.49999H6.66666" stroke="#F8A040" stroke-width="1.5" stroke-linecap="round" stroke-linejoin="round"/>
</svg>
